<svg id="visual" viewBox="0 0 960 300" width="960" height="300" xmlns="http://www.w3.org/2000/svg" xmlns:xlink="http://www.w3.org/1999/xlink" version="1.1"><rect x="0" y="0" width="960" height="300" fill="#0A4D68"></rect><path d="M0 81L137 89L274 99L411 109L549 83L686 97L823 88L960 106L960 0L823 0L686 0L549 0L411 0L274 0L137 0L0 0Z" fill="#40a4b5"></path><path d="M0 64L137 63L274 81L411 92L549 72L686 72L823 60L960 87L960 0L823 0L686 0L549 0L411 0L274 0L137 0L0 0Z" fill="#2a93a5"></path><path d="M0 72L137 76L274 56L411 44L549 53L686 75L823 63L960 79L960 0L823 0L686 0L549 0L411 0L274 0L137 0L0 0Z" fill="#088395"></path><path d="M0 50L137 39L274 44L411 33L549 54L686 37L823 52L960 57L960 0L823 0L686 0L549 0L411 0L274 0L137 0L0 0Z" fill="#077180"></path><path d="M0 21L137 25L274 15L411 35L549 21L686 26L823 24L960 19L960 0L823 0L686 0L549 0L411 0L274 0L137 0L0 0Z" fill="#06606c"></path></svg>